Coordinates
version=1
nRows=20
nColumns=34
inDegrees=yes

Units are S.I. units (second, meters, Newtons, ...)
If the header above contains a line with 'inDegrees', this indicates whether rotational values are in degrees (yes) or radians (no).

endheader
time	pelvis_tilt	pelvis_list	pelvis_rotation	pelvis_tx	pelvis_ty	pelvis_tz	hip_flexion_r	hip_adduction_r	hip_rotation_r	knee_angle_r	ankle_angle_r	subtalar_angle_r	mtp_angle_r	hip_flexion_l	hip_adduction_l	hip_rotation_l	knee_angle_l	ankle_angle_l	subtalar_angle_l	mtp_angle_l	lumbar_extension	lumbar_bending	lumbar_rotation	arm_flex_r	arm_add_r	arm_rot_r	elbow_flex_r	pro_sup_r	arm_flex_l	arm_add_l	arm_rot_l	elbow_flex_l	pro_sup_l
      3.46666670	      0.23857119	      0.50206721	      1.61201578	     -0.04493902	      1.23967521	     -0.07638307	     -6.67732070	      2.11705917	     -6.63265583	      0.65322393	     11.67797636	     -1.29427353	      0.00000000	     -6.12910969	      1.73017893	    -11.82888309	      0.00000000	      6.82581772	     -1.90440006	      0.00000000	    -13.49125710	      2.03196458	      0.36620056	     11.75740582	    -11.19519208	     62.74193040	     16.09820008	     50.51561067	      9.35035264	    -13.49323164	     47.95770444	     26.78086673	     51.85198481
      3.48333330	      0.07206857	      0.53160565	      1.11822356	     -0.04281531	      1.24105987	     -0.07481761	     -6.64117484	      2.05477878	     -6.19288880	      0.86375123	     12.31434244	     -1.35672657	      0.00000000	     -6.19310971	      1.80501552	    -12.00763378	      0.00000000	      7.40184283	     -2.49021799	      0.00000000	    -13.15043379	      2.01041091	      0.39230312	     11.39275062	    -11.15690152	     62.76543847	     16.26452955	     50.39042414	      8.39105043	    -13.63616127	     48.06203019	     26.75931666	     51.92492404
      3.50000000	     -0.13240515	      0.54920478	      0.85815484	     -0.04128871	      1.23607798	     -0.07436927	     -6.49817734	      2.01310077	     -6.07300786	      1.11341318	     12.61811118	     -1.55341530	      0.00000000	     -6.13513279	      1.86716481	    -11.91922974	      0.00000000	      7.66926726	     -2.82313552	      0.00000000	    -12.91945274	      2.08073490	      0.39760572	     11.10545183	    -11.15737750	     62.75331195	     16.37378672	     50.26457415	      7.87022740	    -13.75588188	     48.07798238	     26.75453891	     51.98373158
      3.51666670	     -0.33839860	      0.51173647	      0.59181069	     -0.04047092	      1.23377927	     -0.07295170	     -6.31191057	      2.07047078	     -5.72545493	      1.41089048	     13.02292028	     -1.60394097	      0.00000000	     -5.96759601	      1.81656846	    -11.71461745	      0.20656511	      8.09136184	     -3.08142106	      0.00000000	    -12.87678913	      2.08634023	      0.38549587	     10.84451470	    -11.15444804	     62.71627667	     16.43131717	     50.17083748	      7.36234217	    -13.89810050	     48.10875568	     26.63701967	     52.02321344
      3.53333330	     -1.01999173	      0.50623328	      0.46228062	     -0.03517472	      1.23458109	     -0.07228203	     -5.56729732	      2.07052698	     -5.45595178	      1.62640282	     13.47255587	     -1.96233607	      0.00000000	     -5.24026703	      1.77813704	    -11.42631342	      0.52181188	      8.40305915	     -3.65843086	      0.00000000	    -12.34196645	      2.13419650	      0.25801227	     10.27760942	    -11.10739389	     62.41352968	     16.55920236	     49.76082405	      6.62972746	    -13.91298353	     48.04483955	     26.30060625	     52.15725891
      3.55000000	     -1.12410722	      0.48871894	      0.26659262	     -0.03325070	      1.23165411	     -0.07208952	     -5.56545323	      2.09319194	     -5.26112222	      1.64484432	     13.77417729	     -2.02584662	      0.00000000	     -5.24232980	      1.74773674	    -11.26671542	      0.69071451	      8.80952858	     -3.85588433	      0.00000000	    -12.42875141	      2.13446022	      0.30655602	      9.79175547	    -11.09713569	     62.38723305	     16.53114844	     49.69399476	      5.99934083	    -13.99965509	     48.10398415	     26.08816436	     52.18158926
      3.56666670	     -1.32148529	      0.48364279	      0.05469505	     -0.03227751	      1.23620772	     -0.07345162	     -5.41600428	      2.06071935	     -5.14205864	      1.77688972	     13.94461862	     -2.11771540	      0.00000000	     -5.08010168	      1.76634650	    -11.12967799	      0.87668537	      9.17785846	     -4.06376470	      0.00000000	    -12.64805369	      2.17781160	      0.27044316	      9.36680265	    -11.12992095	     62.33042177	     16.48399096	     49.61907423	      5.37537569	    -13.96766992	     48.19696674	     25.82362603	     52.20727898
      3.58333330	     -1.53066823	      0.51924877	     -0.16479761	     -0.02775784	      1.23855027	     -0.07359663	     -5.32913488	      1.98609341	     -5.15416056	      1.73989266	     13.97519523	     -2.15483313	      0.00000000	     -4.97475168	      1.83830301	    -11.06528697	      0.96625094	      9.22722593	     -4.09530096	      0.00000000	    -13.04340928	      2.27638289	      0.23750008	      8.96293665	    -11.12383672	     62.35229067	     16.44130049	     49.60761147	      4.98960642	    -13.99602913	     48.25468499	     25.69242636	     52.21322047
      3.60000000	     -2.51957300	      0.53171615	     -0.31856597	     -0.02576416	      1.23681955	     -0.07230644	     -4.24356986	      1.96819785	     -4.78878449	      2.07360436	     14.04636888	     -2.73438099	      0.00000000	     -3.81270691	      1.84112173	    -10.56587058	      1.51801038	      9.58475861	     -5.11822752	      0.00000000	    -12.08041907	      2.24244736	      0.01353782	      8.14893429	    -11.00858782	     61.74199647	     16.28990454	     49.03886647	      3.96624723	    -13.59080215	     48.74697433	     24.18567145	     52.35470420
      3.61666670	     -2.68079249	      0.55572071	     -0.58163644	     -0.02326798	      1.23609904	     -0.07192534	     -4.17226759	      1.92376858	     -4.79310737	      2.07764108	     14.03196960	     -2.75580171	      0.00000000	     -3.74478363	      1.88517206	    -10.47747737	      1.72871700	      9.63161024	     -5.16076209	      0.00000000	    -12.59516011	      2.25779483	      0.09381980	      7.64436253	    -11.04912030	     61.76680121	     16.21745997	     49.01816237	      3.29249705	    -13.64603414	     48.86396865	     23.99556907	     52.36574595
      3.63333330	     -2.91294658	      0.58865663	     -1.00198451	     -0.01745210	      1.23403828	     -0.07189201	     -4.05581726	      1.88872674	     -4.53310036	      2.14067814	     14.07055092	     -2.83997790	      0.00000000	     -3.50789665	      1.93165719	    -10.43939927	      2.20555631	     10.25156057	     -5.79038787	      0.00000000	    -12.69192411	      2.17850886	      0.09173310	      6.96321403	    -11.06117069	     61.69467009	     16.14257035	     48.85070220	      2.28562386	    -13.59163679	     49.29856079	     23.50880678	     52.41972207
      3.65000000	     -3.78287568	      0.61849504	     -1.10772798	     -0.01599844	      1.23482856	     -0.07121736	     -3.06500160	      1.87692339	     -4.29194150	      2.56363604	     14.01493622	     -3.35347517	      0.00000000	     -2.42021210	      1.91190087	     -9.80792832	      2.91318788	     10.15277891	     -6.77340111	      0.00000000	    -12.19372401	      2.21659842	      0.10258878	      6.16879546	    -11.11660612	     61.48799091	     16.01655639	     48.23035723	      1.67811915	    -13.44230388	     50.73156764	     22.47793715	     52.55605780
      3.66666670	     -3.95827319	      0.69245503	     -1.23262864	     -0.01048760	      1.23242268	     -0.07181753	     -3.04561774	      1.80540641	     -4.30866207	      2.58732790	     14.02001215	     -3.37925480	      0.00000000	     -2.30943263	      1.98478976	     -9.76636478	      3.25837403	     10.13685895	     -6.81327722	      0.00000000	    -12.82791772	      2.19768822	      0.17848319	      5.55212505	    -11.19158579	     61.54670769	     15.91954287	     48.21714789	      0.95072107	    -13.45628282	     50.86932459	     22.32693696	     52.56300514
      3.68333330	     -4.41703769	      0.76104854	     -1.30765678	     -0.00977557	      1.22749545	     -0.07110566	     -2.47499796	      1.76698674	     -3.88822065	      3.05611526	     14.00941369	     -4.33379023	      0.00000000	     -1.44405525	      2.01250030	     -8.97447203	      4.37561033	      9.78868529	     -9.63035410	      0.00000000	    -12.80798991	      2.09621845	      0.76009227	      4.71772593	    -11.42113841	     62.38937424	     15.90662068	     45.78078678	      1.17534623	    -13.63509174	     56.72116126	     21.42308337	     52.23835842
      3.70000000	     -4.60969427	      0.84420722	     -1.30275368	     -0.00436701	      1.22699815	     -0.07143284	     -2.38559120	      1.71000806	     -3.82368617	      3.26207265	     14.04980486	     -4.33073531	      0.00000000	     -1.24625762	      2.06975273	     -8.89873843	      4.86269691	      9.79361289	     -9.63173942	      0.00000000	    -13.49957469	      2.03349807	      0.82243004	      4.15057871	    -11.53847384	     62.45949564	     15.80461770	     45.76874330	      0.52623692	    -13.66456108	     56.83090337	     21.32922411	     52.22981207
      3.71666670	     -5.56879735	      0.89895246	     -1.28491519	     -0.00101742	      1.21998062	     -0.07206415	     -0.91858079	      1.68122214	     -3.60771359	      4.54214770	     14.90738776	     -5.15713187	      0.00000000	      0.64392178	      1.95819100	     -8.56048076	      7.00526178	     10.71096985	    -10.97915861	      0.00000000	    -13.19212285	      1.96927372	      0.97670262	      3.61593889	    -11.79680997	     63.48266956	     15.87417526	     45.26795519	      0.03332287	    -13.98755163	     58.29754524	     21.80080999	     51.89342191
      3.73333330	     -5.58141778	      0.87990186	     -1.31990300	      0.00385914	      1.21761832	     -0.07134676	     -0.53709863	      1.73537714	     -3.49762408	      5.74215086	     15.41646223	     -5.62405283	      0.00000000	      1.22118693	      1.81688926	     -8.52740999	      8.59305806	     11.28991450	    -11.65670615	      0.00000000	    -14.41814649	      1.99424960	      0.97211685	      3.40193697	    -11.93100043	     63.77280186	     15.76782850	     45.16754334	     -0.22367950	    -14.01569849	     58.72860093	     21.80395112	     51.84481017
      3.75000000	     -6.71898696	      0.86571059	     -1.26246684	      0.00693165	      1.21608849	     -0.07209745	      1.36980249	      1.80956793	     -2.65508468	      7.48488482	     15.35677143	     -7.91682011	      0.00000000	      3.25614930	      1.74065633	     -7.33428778	     10.64026978	     10.91586528	    -14.39740866	      0.00000000	    -14.03788439	      2.12186101	      1.08648933	      3.15352692	    -12.28253327	     66.86596954	     15.59580392	     44.26669392	     -0.25409244	    -14.45646619	     62.95082010	     22.41442376	     51.50611952
      3.76666670	     -6.62692876	      0.87356590	     -1.25091253	      0.00997438	      1.21448139	     -0.07246755	      2.04001713	      1.82744690	     -2.24392839	      9.33602097	     16.49319018	     -8.85396726	      0.00000000	      4.12271101	      1.66911414	     -6.98527003	     13.05599162	     11.75937816	    -15.43702418	      0.00000000	    -15.53289361	      2.16050324	      1.21467353	      3.26532613	    -12.40494480	     67.56575817	     15.50130207	     43.98415897	     -0.02476585	    -14.39977549	     63.83352582	     22.48990409	     51.35116624
      3.78333330	     -7.14014876	      0.94015942	     -1.09983316	      0.01510371	      1.20924287	     -0.07469975	      3.56271490	      1.83915087	     -1.07812572	     11.68123608	     16.21540889	    -12.27556858	      0.00000000	      5.96348702	      1.74044732	     -5.99339377	     15.97119407	     10.75272895	    -19.02441898	      0.00000000	    -16.14861896	      2.19004053	      1.26042681	      3.68971994	    -12.71797296	     72.89682034	     15.30553875	     41.53784994	      1.21822380	    -14.72707659	     70.50959462	     22.78037381	     50.11108353
